<svg width="20" height="24" viewBox="0 0 20 24" fill="none" xmlns="http://www.w3.org/2000/svg">
<path d="M14.8979 9.34395C14.8979 10.2185 14.6821 11.042 14.3017 11.7681H9.69705L8.05237 8.31167H14.7772C14.7749 8.26528 14.7703 8.2212 14.7656 8.1748C14.8515 8.5506 14.8979 8.94263 14.8979 9.34395Z" fill="url(#paint0_linear_2513_3146)"/>
<path d="M19.0177 11.086L18.9249 11.7656H14.2321C14.6102 11.0396 14.8213 10.2161 14.8213 9.34152C14.8213 8.94021 14.7749 8.54818 14.6914 8.17238C14.587 7.23753 13.9792 6.26557 13.4526 5.72971C12.8542 5.11963 12.142 4.66728 11.3649 4.39355C11.3371 4.38427 11.3092 4.37267 11.2814 4.3634C10.7293 4.18014 10.1494 4.08271 9.55319 4.08271C9.00341 4.08271 8.46524 4.1639 7.95258 4.32164H7.94794C7.91547 4.33092 7.88299 4.34252 7.8482 4.35412C7.02934 4.62321 6.28006 5.08947 5.65374 5.72739C4.57275 6.82926 4.03225 8.27444 4.03225 9.71963C4.03225 11.1648 4.57275 12.6123 5.65374 13.7119L9.55319 17.6832L12.3879 14.7975H18.1014L14.7007 18.2353L14.5963 18.3397L9.55319 23.4756L2.78889 16.5883C-0.929628 12.8002 -0.929628 6.63904 2.78889 2.85094C4.59363 1.0114 6.99685 0 9.55319 0C10.8314 0 12.0701 0.252848 13.2184 0.73767C14.3643 1.22017 15.4151 1.93233 16.3175 2.85326C17.7952 4.35644 18.7277 6.26093 19.0177 8.36028C19.1429 9.26265 19.1429 10.1789 19.0177 11.0813V11.086Z" fill="url(#paint1_linear_2513_3146)"/>
<defs>
<linearGradient id="paint0_linear_2513_3146" x1="6.93426" y1="9.97027" x2="14.9814" y2="9.97027" gradientUnits="userSpaceOnUse">
<stop stop-color="#56C9FF"/>
<stop offset="1" stop-color="#0077FF"/>
</linearGradient>
<linearGradient id="paint1_linear_2513_3146" x1="9.55551" y1="23.8027" x2="9.55551" y2="-0.0695911" gradientUnits="userSpaceOnUse">
<stop stop-color="#56C9FF"/>
<stop offset="1" stop-color="#0077FF"/>
</linearGradient>
</defs>
</svg>
