<svg xmlns="http://www.w3.org/2000/svg" width="142" height="32" viewBox="0 0 142 32" fill="none"><path d="M29.0968 20.2588C30.317 20.2588 30.9364 19.8273 31.3678 19.0386L33.4881 20.4467C32.7179 21.5717 31.4421 22.5669 29.0226 22.5669C25.8144 22.5669 23.7313 20.333 23.7313 17.387C23.7313 14.4409 26.0023 12.207 28.837 12.207C32.0266 12.207 33.9219 14.7031 33.9219 17.1805C33.9219 17.612 33.9033 17.9878 33.8662 18.2313H26.4524C26.7725 19.5258 27.7839 20.2588 29.0992 20.2588H29.0968ZM31.3122 16.4127C31.05 15.1183 30.1871 14.311 28.9089 14.311C27.6308 14.311 26.6936 15.0626 26.4129 16.4127H31.3122Z" fill="black"></path><path d="M36.0978 18.6288V14.8012H34.409V12.4374H35.2534C35.9284 12.4374 36.2671 12.0802 36.2671 11.3681V9.83008H38.9696V12.4398H41.3728V14.8036H38.8768V18.2947C38.8768 19.3456 39.4219 19.9093 40.3962 19.9093H41.447V22.3311H39.8139C37.355 22.3311 36.0978 20.8673 36.0978 18.6334V18.6288Z" fill="black"></path><path d="M52.2361 16.0932V22.3239H49.4779V16.6383C49.4779 15.381 48.6521 14.6688 47.527 14.6688C46.402 14.6688 45.5576 15.4576 45.5367 16.4713V22.3263H42.76V8.60742H45.5367V13.2051C46.2117 12.6043 47.1884 12.1914 48.3714 12.1914C50.7352 12.1914 52.2384 13.7874 52.2384 16.0955L52.2361 16.0932Z" fill="black"></path><path d="M53.6627 17.3889C53.6627 14.4243 55.8781 12.209 59.012 12.209C62.1459 12.209 64.3613 14.4243 64.3613 17.3889C64.3613 20.3535 62.1274 22.5689 59.012 22.5689C55.8966 22.5689 53.6627 20.335 53.6627 17.3889ZM61.5823 17.3704C61.5823 15.793 60.5685 14.6864 59.0306 14.6864C57.4926 14.6864 56.4603 15.793 56.4603 17.3889C56.4603 18.9849 57.4926 20.0914 59.0306 20.0914C60.5685 20.0914 61.5823 18.9663 61.5823 17.3704Z" fill="black"></path><path d="M74.9832 12.4355L71.3412 22.3268H68.1122L64.4911 12.4355H67.3629L69.7267 19.6244L72.1091 12.4355H74.9809H74.9832Z" fill="black"></path><path d="M80.4438 20.2588C81.664 20.2588 82.2834 19.8273 82.7148 19.0386L84.8351 20.4467C84.0649 21.5717 82.7891 22.5669 80.3696 22.5669C77.1614 22.5669 75.0783 20.333 75.0783 17.387C75.0783 14.4409 77.3493 12.207 80.184 12.207C83.3736 12.207 85.2688 14.7031 85.2688 17.1805C85.2688 17.612 85.2503 17.9878 85.2132 18.2313H77.7993C78.1195 19.5258 79.1309 20.2588 80.4461 20.2588H80.4438ZM82.6592 16.4127C82.397 15.1183 81.5341 14.311 80.2559 14.311C78.9778 14.311 78.0406 15.0626 77.7599 16.4127H82.6592Z" fill="black"></path><path d="M96.2087 16.0935V22.3243H93.4505V16.6387C93.4505 15.3814 92.6247 14.6692 91.4996 14.6692C90.3746 14.6692 89.5302 15.4579 89.5093 16.4717V22.3266H86.7326V12.4353H89.3609V13.354C90.0359 12.6604 91.0682 12.1895 92.344 12.1895C94.7078 12.1895 96.211 13.7854 96.211 16.0935H96.2087Z" fill="black"></path><path d="M98.837 18.6288V14.8012H97.1482V12.4374H97.9926C98.6676 12.4374 99.0063 12.0802 99.0063 11.3681V9.83008H101.709V12.4398H104.112V14.8036H101.616V18.2947C101.616 19.3456 102.161 19.9093 103.135 19.9093H104.186V22.3311H102.553C100.094 22.3311 98.837 20.8673 98.837 18.6334V18.6288Z" fill="black"></path><path d="M114.713 12.4355V22.3268H112.103V21.3897C111.41 22.1018 110.396 22.5727 109.213 22.5727C106.698 22.5727 105.385 20.8469 105.385 18.5944V12.4379H108.162V18.2372C108.162 19.3251 108.874 20.0953 110.039 20.0953C111.203 20.0953 111.934 19.3251 111.934 18.2928V12.4379H114.711L114.713 12.4355Z" fill="black"></path><path d="M122.164 12.1914V14.8011C120.475 14.8011 119.48 15.5712 119.48 16.8842V22.3263H116.703V12.435H119.332V13.393C120.007 12.6809 121.002 12.1914 122.166 12.1914H122.164Z" fill="black"></path><path d="M127.982 20.2588C129.202 20.2588 129.821 19.8273 130.253 19.0386L132.373 20.4467C131.603 21.5717 130.327 22.5669 127.908 22.5669C124.7 22.5669 122.616 20.333 122.616 17.387C122.616 14.4409 124.887 12.207 127.722 12.207C130.912 12.207 132.807 14.7031 132.807 17.1805C132.807 17.612 132.788 17.9878 132.751 18.2313H125.337C125.658 19.5258 126.669 20.2588 127.984 20.2588H127.982ZM130.197 16.4127C129.935 15.1183 129.072 14.311 127.794 14.311C126.516 14.311 125.579 15.0626 125.298 16.4127H130.197Z" fill="black"></path><path d="M133.501 19.9592L135.846 19.0591C136.108 19.9221 136.822 20.4301 137.929 20.4301C138.755 20.4301 139.242 20.0914 139.242 19.53C139.242 17.8042 133.969 18.63 133.969 15.2316C133.969 13.3549 135.507 12.209 137.91 12.209C139.88 12.209 141.306 13.0162 141.719 14.3849L139.374 15.2849C139.131 14.6099 138.604 14.2712 137.873 14.2712C137.143 14.2712 136.709 14.5705 136.709 15.0785C136.709 16.6744 142 15.7164 142 19.3584C142 21.3487 140.367 22.5665 137.834 22.5665C135.637 22.5665 134.062 21.6665 133.498 19.9569L133.501 19.9592Z" fill="black"></path><path class="icon" d="M14.8978 13.343C14.8978 14.2175 14.6821 15.041 14.3016 15.7671H9.69699L8.05231 12.3107H14.7772C14.7749 12.2643 14.7702 12.2202 14.7656 12.1738C14.8514 12.5496 14.8978 12.9417 14.8978 13.343Z" fill="url(#paint0_linear_2674_2427)"></path><path class="icon" d="M19.0177 15.086L18.9249 15.7656H14.2321C14.6102 15.0396 14.8213 14.2161 14.8213 13.3415C14.8213 12.9402 14.7749 12.5482 14.6914 12.1724C14.587 11.2375 13.9792 10.2656 13.4526 9.72971C12.8542 9.11963 12.142 8.66728 11.3649 8.39355C11.3371 8.38427 11.3092 8.37267 11.2814 8.3634C10.7293 8.18014 10.1494 8.08271 9.55319 8.08271C9.00341 8.08271 8.46524 8.1639 7.95258 8.32164H7.94794C7.91547 8.33092 7.88299 8.34252 7.8482 8.35412C7.02934 8.62321 6.28006 9.08947 5.65374 9.72739C4.57275 10.8293 4.03225 12.2744 4.03225 13.7196C4.03225 15.1648 4.57275 16.6123 5.65374 17.7119L9.55319 21.6832L12.3879 18.7975H18.1014L14.7007 22.2353L14.5963 22.3397L9.55319 27.4756L2.78889 20.5883C-0.929628 16.8002 -0.929628 10.639 2.78889 6.85094C4.59363 5.0114 6.99685 4 9.55319 4C10.8314 4 12.0701 4.25285 13.2184 4.73767C14.3643 5.22017 15.4151 5.93233 16.3175 6.85326C17.7952 8.35644 18.7277 10.2609 19.0177 12.3603C19.1429 13.2626 19.1429 14.1789 19.0177 15.0813V15.086Z" fill="url(#paint1_linear_2674_2427)"></path><defs><linearGradient id="paint0_linear_2674_2427" x1="6.9342" y1="13.9693" x2="14.9813" y2="13.9693" gradientUnits="userSpaceOnUse"><stop stop-color="#56C9FF"></stop><stop offset="1" stop-color="#0077FF"></stop></linearGradient><linearGradient id="paint1_linear_2674_2427" x1="9.55551" y1="27.8027" x2="9.55551" y2="3.93041" gradientUnits="userSpaceOnUse"><stop stop-color="#56C9FF"></stop><stop offset="1" stop-color="#0077FF"></stop></linearGradient></defs></svg>