<svg width="142" height="32" viewBox="0 0 142 32" fill="none" xmlns="http://www.w3.org/2000/svg">
<path d="M29.0968 20.2598C30.317 20.2598 30.9364 19.8283 31.3678 19.0396L33.4881 20.4477C32.7179 21.5727 31.4421 22.5679 29.0226 22.5679C25.8144 22.5679 23.7313 20.334 23.7313 17.3879C23.7313 14.4419 26.0023 12.208 28.837 12.208C32.0266 12.208 33.9219 14.704 33.9219 17.1815C33.9219 17.613 33.9033 17.9888 33.8662 18.2323H26.4524C26.7725 19.5267 27.7839 20.2598 29.0992 20.2598H29.0968ZM31.3122 16.4137C31.05 15.1193 30.1871 14.312 28.9089 14.312C27.6308 14.312 26.6936 15.0636 26.4129 16.4137H31.3122Z" fill="#090E21"/>
<path d="M36.0977 18.6288V14.8012H34.4089V12.4374H35.2533C35.9283 12.4374 36.267 12.0802 36.267 11.3681V9.83008H38.9695V12.4398H41.3727V14.8036H38.8767V18.2947C38.8767 19.3456 39.4219 19.9093 40.3961 19.9093H41.447V22.3311H39.8139C37.355 22.3311 36.0977 20.8673 36.0977 18.6334V18.6288Z" fill="#090E21"/>
<path d="M52.2361 16.0932V22.3239H49.4779V16.6383C49.4779 15.381 48.6521 14.6688 47.527 14.6688C46.402 14.6688 45.5576 15.4576 45.5367 16.4713V22.3263H42.76V8.60742H45.5367V13.2051C46.2117 12.6043 47.1884 12.1914 48.3714 12.1914C50.7352 12.1914 52.2384 13.7874 52.2384 16.0955L52.2361 16.0932Z" fill="#090E21"/>
<path d="M53.6627 17.3899C53.6627 14.4253 55.8781 12.21 59.012 12.21C62.1459 12.21 64.3613 14.4253 64.3613 17.3899C64.3613 20.3545 62.1274 22.5698 59.012 22.5698C55.8966 22.5698 53.6627 20.3359 53.6627 17.3899ZM61.5823 17.3713C61.5823 15.7939 60.5685 14.6874 59.0306 14.6874C57.4926 14.6874 56.4603 15.7939 56.4603 17.3899C56.4603 18.9859 57.4926 20.0924 59.0306 20.0924C60.5685 20.0924 61.5823 18.9673 61.5823 17.3713Z" fill="#090E21"/>
<path d="M74.9832 12.4346L71.3412 22.3259H68.1122L64.4911 12.4346H67.3629L69.7267 19.6234L72.1091 12.4346H74.9809H74.9832Z" fill="#090E21"/>
<path d="M80.4439 20.2598C81.6641 20.2598 82.2834 19.8283 82.7149 19.0396L84.8351 20.4477C84.065 21.5727 82.7891 22.5679 80.3697 22.5679C77.1615 22.5679 75.0784 20.334 75.0784 17.3879C75.0784 14.4419 77.3494 12.208 80.1841 12.208C83.3737 12.208 85.2689 14.704 85.2689 17.1815C85.2689 17.613 85.2503 17.9888 85.2132 18.2323H77.7994C78.1195 19.5267 79.1309 20.2598 80.4462 20.2598H80.4439ZM82.6592 16.4137C82.3971 15.1193 81.5342 14.312 80.256 14.312C78.9778 14.312 78.0407 15.0636 77.76 16.4137H82.6592Z" fill="#090E21"/>
<path d="M96.2087 16.0935V22.3243H93.4506V16.6387C93.4506 15.3814 92.6248 14.6692 91.4997 14.6692C90.3746 14.6692 89.5302 15.4579 89.5094 16.4717V22.3266H86.7327V12.4353H89.3609V13.354C90.036 12.6604 91.0682 12.1895 92.3441 12.1895C94.7079 12.1895 96.211 13.7854 96.211 16.0935H96.2087Z" fill="#090E21"/>
<path d="M98.837 18.6288V14.8012H97.1482V12.4374H97.9926C98.6676 12.4374 99.0063 12.0802 99.0063 11.3681V9.83008H101.709V12.4398H104.112V14.8036H101.616V18.2947C101.616 19.3456 102.161 19.9093 103.135 19.9093H104.186V22.3311H102.553C100.094 22.3311 98.837 20.8673 98.837 18.6334V18.6288Z" fill="#090E21"/>
<path d="M114.713 12.4346V22.3259H112.103V21.3887C111.41 22.1008 110.396 22.5717 109.213 22.5717C106.698 22.5717 105.385 20.8459 105.385 18.5934V12.4369H108.162V18.2362C108.162 19.3241 108.874 20.0943 110.039 20.0943C111.203 20.0943 111.934 19.3241 111.934 18.2919V12.4369H114.711L114.713 12.4346Z" fill="#090E21"/>
<path d="M122.164 12.1914V14.8011C120.475 14.8011 119.48 15.5712 119.48 16.8842V22.3263H116.703V12.435H119.332V13.393C120.007 12.6809 121.002 12.1914 122.166 12.1914H122.164Z" fill="#090E21"/>
<path d="M127.982 20.2598C129.202 20.2598 129.822 19.8283 130.253 19.0396L132.373 20.4477C131.603 21.5727 130.327 22.5679 127.908 22.5679C124.7 22.5679 122.616 20.334 122.616 17.3879C122.616 14.4419 124.887 12.208 127.722 12.208C130.912 12.208 132.807 14.704 132.807 17.1815C132.807 17.613 132.788 17.9888 132.751 18.2323H125.337C125.658 19.5267 126.669 20.2598 127.984 20.2598H127.982ZM130.197 16.4137C129.935 15.1193 129.072 14.312 127.794 14.312C126.516 14.312 125.579 15.0636 125.298 16.4137H130.197Z" fill="#090E21"/>
<path d="M133.5 19.9602L135.846 19.0601C136.108 19.923 136.822 20.4311 137.929 20.4311C138.755 20.4311 139.242 20.0924 139.242 19.531C139.242 17.8051 133.969 18.6309 133.969 15.2326C133.969 13.3559 135.507 12.21 137.91 12.21C139.88 12.21 141.306 13.0172 141.719 14.3859L139.374 15.2859C139.13 14.6109 138.604 14.2722 137.873 14.2722C137.142 14.2722 136.709 14.5714 136.709 15.0795C136.709 16.6754 142 15.7174 142 19.3593C142 21.3497 140.367 22.5675 137.834 22.5675C135.637 22.5675 134.062 21.6675 133.498 19.9578L133.5 19.9602Z" fill="#090E21"/>
<path d="M14.8979 13.3439C14.8979 14.2185 14.6821 15.042 14.3017 15.7681H9.69705L8.05237 12.3117H14.7772C14.7749 12.2653 14.7703 12.2212 14.7656 12.1748C14.8515 12.5506 14.8979 12.9426 14.8979 13.3439Z" fill="url(#paint0_linear_2513_3131)" className="icon"/>
<path d="M19.0177 15.086L18.9249 15.7656H14.2321C14.6102 15.0396 14.8213 14.2161 14.8213 13.3415C14.8213 12.9402 14.7749 12.5482 14.6914 12.1724C14.587 11.2375 13.9792 10.2656 13.4526 9.72971C12.8542 9.11963 12.142 8.66728 11.3649 8.39355C11.3371 8.38427 11.3092 8.37267 11.2814 8.3634C10.7293 8.18014 10.1494 8.08271 9.55319 8.08271C9.00341 8.08271 8.46524 8.1639 7.95258 8.32164H7.94794C7.91547 8.33092 7.88299 8.34252 7.8482 8.35412C7.02934 8.62321 6.28006 9.08947 5.65374 9.72739C4.57275 10.8293 4.03225 12.2744 4.03225 13.7196C4.03225 15.1648 4.57275 16.6123 5.65374 17.7119L9.55319 21.6832L12.3879 18.7975H18.1014L14.7007 22.2353L14.5963 22.3397L9.55319 27.4756L2.78889 20.5883C-0.929628 16.8002 -0.929628 10.639 2.78889 6.85094C4.59363 5.0114 6.99685 4 9.55319 4C10.8314 4 12.0701 4.25285 13.2184 4.73767C14.3643 5.22017 15.4151 5.93233 16.3175 6.85326C17.7952 8.35644 18.7277 10.2609 19.0177 12.3603C19.1429 13.2626 19.1429 14.1789 19.0177 15.0813V15.086Z" fill="url(#paint1_linear_2513_3131)" className="icon"/>
<defs>
<linearGradient id="paint0_linear_2513_3131" x1="6.93426" y1="13.9703" x2="14.9814" y2="13.9703" gradientUnits="userSpaceOnUse">
<stop stopColor="#56C9FF"/>
<stop offset="1" stopColor="#0077FF"/>
</linearGradient>
<linearGradient id="paint1_linear_2513_3131" x1="9.55551" y1="27.8027" x2="9.55551" y2="3.93041" gradientUnits="userSpaceOnUse">
<stop stopColor="#56C9FF"/>
<stop offset="1" stopColor="#0077FF"/>
</linearGradient>
</defs>
</svg>
