<svg width="29" height="29" viewBox="0 0 29 29" fill="none" xmlns="http://www.w3.org/2000/svg">
<path d="M20.3333 10.9999C20.3333 10.4028 20.1055 9.80568 19.6499 9.35008C19.1943 8.89447 18.5972 8.66667 18 8.66667M18 18C21.866 18 25 14.866 25 11C25 7.13401 21.866 4 18 4C14.134 4 11 7.13401 11 11C11 11.3193 11.0214 11.6336 11.0628 11.9415C11.1309 12.448 11.1649 12.7013 11.142 12.8615C11.1181 13.0284 11.0877 13.1184 11.0055 13.2655C10.9265 13.4068 10.7873 13.546 10.509 13.8243L4.54673 19.7866C4.34496 19.9884 4.24407 20.0893 4.17192 20.207C4.10795 20.3114 4.06081 20.4252 4.03224 20.5442C4 20.6785 4 20.8212 4 21.1065V23.1333C4 23.7867 4 24.1134 4.12716 24.363C4.23901 24.5825 4.41749 24.761 4.63701 24.8728C4.88657 25 5.21327 25 5.86667 25H8.66667V22.6667H11V20.3333H13.3333L15.1757 18.491C15.454 18.2127 15.5932 18.0735 15.7345 17.9945C15.8816 17.9123 15.9716 17.8819 16.1385 17.858C16.2987 17.8351 16.552 17.8691 17.0585 17.9372C17.3664 17.9786 17.6807 18 18 18Z" stroke="#344054" stroke-width="2" stroke-linecap="round" stroke-linejoin="round"/>
</svg>
