<svg width="29" height="29" viewBox="0 0 29 29" fill="none" xmlns="http://www.w3.org/2000/svg">
<g id="mail-01">
<path id="Icon" d="M2.83301 8.66699L12.3587 15.335C13.1301 15.875 13.5158 16.1449 13.9353 16.2495C14.3059 16.3419 14.6935 16.3419 15.064 16.2495C15.4836 16.1449 15.8692 15.875 16.6406 15.335L26.1663 8.66699M8.43301 23.8337H20.5663C22.5265 23.8337 23.5066 23.8337 24.2553 23.4522C24.9139 23.1166 25.4493 22.5812 25.7849 21.9226C26.1663 21.1739 26.1663 20.1938 26.1663 18.2337V10.767C26.1663 8.80681 26.1663 7.82672 25.7849 7.07803C25.4493 6.41946 24.9139 5.88403 24.2553 5.54847C23.5066 5.16699 22.5265 5.16699 20.5663 5.16699H8.43301C6.47282 5.16699 5.49273 5.16699 4.74404 5.54847C4.08547 5.88403 3.55004 6.41946 3.21448 7.07803C2.83301 7.82672 2.83301 8.80681 2.83301 10.767V18.2337C2.83301 20.1938 2.83301 21.1739 3.21448 21.9226C3.55004 22.5812 4.08547 23.1166 4.74404 23.4522C5.49273 23.8337 6.47282 23.8337 8.43301 23.8337Z" stroke="#344054" stroke-width="2" stroke-linecap="round" stroke-linejoin="round"/>
</g>
</svg>
